<svg width="92" height="24" viewBox="0 0 92 24" fill="none" xmlns="http://www.w3.org/2000/svg">
<path d="M74.052 22.56V22.76H74.252H77.3857H77.5857V22.56V7.51211L87.6998 22.671L87.7592 22.76H87.8662H91H91.2V22.56V1.44V1.24H91H87.8662H87.6662V1.44V16.4737L77.5521 1.32893L77.4927 1.24H77.3857H74.252H74.052V1.44V22.56Z" fill="black" stroke="black" stroke-width="0.4"/>
<path d="M52.1876 17.8355L52.188 17.8363C53.002 19.5215 54.1754 20.8416 55.7069 21.7913L55.7077 21.7918C57.2432 22.7339 59.0944 23.2 61.2521 23.2C63.4002 23.2 65.2464 22.7339 66.7817 21.7918L66.782 21.7916C68.3237 20.8418 69.4975 19.5214 70.3018 17.8355C71.1053 16.1515 71.5039 14.2046 71.5039 12C71.5039 9.79538 71.1053 7.84854 70.3018 6.16455C69.4975 4.47867 68.3237 3.16302 66.7819 2.22296C65.2466 1.27107 63.4002 0.8 61.2521 0.8C59.0942 0.8 57.2428 1.27103 55.7073 2.22311C54.1755 3.16314 53.0021 4.4785 52.188 6.16367L52.1876 6.16455C51.3842 7.84854 50.9855 9.79538 50.9855 12C50.9855 14.2046 51.3842 16.1515 52.1876 17.8355ZM61.2547 19.8813L61.2534 19.8813C59.7754 19.8718 58.5545 19.5366 57.5789 18.8883C56.6091 18.2372 55.8795 17.3309 55.3909 16.1618C54.9007 14.9791 54.6574 13.5937 54.6672 12.0012C54.6769 10.4081 54.9299 9.01659 55.4208 7.82273C55.9099 6.63322 56.6351 5.71755 57.5946 5.06711C58.5585 4.42026 59.7725 4.09949 61.2495 4.11865L61.2508 4.11866C62.7291 4.12825 63.9394 4.46346 64.8945 5.11089L64.8953 5.11139C65.865 5.76225 66.5948 6.67333 67.0836 7.85259L67.0839 7.85312C67.5741 9.02629 67.8223 10.407 67.8223 12C67.8223 13.5928 67.5742 14.9837 67.0835 16.1771C66.5946 17.3564 65.8645 18.2726 64.8942 18.9333C63.9405 19.5797 62.7319 19.9005 61.2547 19.8813Z" fill="black" stroke="black" stroke-width="0.4"/>
<path d="M39.6326 22.56V22.76H39.8326H42.922H43.122V22.56V4.52934H50.0026H50.2026V4.32934V1.44V1.24H50.0026H32.752H32.552V1.44V4.32934V4.52934H32.752H39.6326V22.56Z" fill="black" stroke="black" stroke-width="0.4"/>
<path d="M22.0324 22.56V22.76H22.2324H34.9598H35.1598V22.56V19.6707V19.4707H34.9598H25.5219V1.44V1.24H25.3219H22.2324H22.0324V1.44V22.56Z" fill="black" stroke="black" stroke-width="0.4"/>
<path d="M0.809937 22.4977L0.724033 22.76H1H4.2077H4.35276L4.39781 22.6221L5.91027 17.9933H14.3574L15.8878 22.6228L15.9332 22.76H16.0777H19.2854H19.5613L19.4754 22.4977L12.5575 1.37775L12.5123 1.24H12.3674H7.91799H7.77305L7.72793 1.37775L0.809937 22.4977ZM10.1092 5.14288L13.2748 14.7187H6.98027L10.1092 5.14288Z" fill="black" stroke="black" stroke-width="0.4"/>
</svg>
