<svg width="220" height="54" viewBox="0 0 220 54" fill="none" xmlns="http://www.w3.org/2000/svg">
<path d="M179.061 52.9201V1.08008H186.721L212.34 39.6001V1.08008H220V52.9201H212.34L186.721 14.3641V52.9201H179.061Z" fill="#ECEFF2"/>
<path d="M147.281 54C142.078 54 137.645 52.872 133.984 50.616C130.322 48.336 127.516 45.168 125.565 41.112C123.637 37.056 122.674 32.352 122.674 27C122.674 21.648 123.637 16.944 125.565 12.888C127.516 8.832 130.322 5.676 133.984 3.42C137.645 1.14 142.078 0 147.281 0C152.46 0 156.881 1.14 160.542 3.42C164.228 5.676 167.034 8.832 168.961 12.888C170.888 16.944 171.852 21.648 171.852 27C171.852 32.352 170.888 37.056 168.961 41.112C167.034 45.168 164.228 48.336 160.542 50.616C156.881 52.872 152.46 54 147.281 54ZM147.281 46.836C150.967 46.884 154.026 46.08 156.459 44.424C158.916 42.744 160.759 40.416 161.987 37.44C163.216 34.44 163.83 30.96 163.83 27C163.83 23.04 163.216 19.584 161.987 16.632C160.759 13.656 158.916 11.34 156.459 9.684C154.026 8.028 150.967 7.188 147.281 7.164C143.595 7.116 140.524 7.92 138.067 9.576C135.634 11.232 133.803 13.56 132.575 16.56C131.346 19.56 130.72 23.04 130.696 27C130.671 30.96 131.274 34.428 132.502 37.404C133.731 40.356 135.574 42.66 138.031 44.316C140.512 45.972 143.595 46.812 147.281 46.836Z" fill="#ECEFF2"/>
<path d="M94.9234 52.9201V8.17208H77.6152V1.08008H119.783V8.17208H102.475V52.9201H94.9234Z" fill="#ECEFF2"/>
<path d="M51.9023 52.9201V1.08008H59.4543V45.8281H83.0136V52.9201H51.9023Z" fill="#ECEFF2"/>
<path d="M0 52.9201L16.9106 1.08008H27.7869L44.6976 52.9201H36.8565L21.2828 5.61608H23.2341L7.84105 52.9201H0ZM8.78053 41.2201V34.1641H35.9532V41.2201H8.78053Z" fill="#ECEFF2"/>
</svg>
