<svg width="82" height="82" viewBox="0 0 82 82" fill="none" xmlns="http://www.w3.org/2000/svg">
<path d="M1 10.2939V81M1 81H54.2118H62.5945V71.7062H44.3713M1 81V1H47.4692M47.4692 1V15.7608H62.5945M47.4692 1L62.5945 15.7608M62.5945 15.7608V35.4419M62.5945 35.4419H69.1275H66.4214V47.4693L69.1275 52.0251M62.5945 35.4419H58.7677M44.3713 71.7062H80.8178L74.9726 61.8656M44.3713 71.7062L50.2164 61.8656M58.7677 35.4419V47.4693L56.0616 52.0251M58.7677 35.4419H56.0616M56.0616 52.0251H69.1275M56.0616 52.0251L50.2164 61.8656M69.1275 52.0251L74.9726 61.8656M74.9726 61.8656H50.2164M9.38269 10.2939H38.1754M9.38269 19.4055H38.1754M9.38269 27.2415H25.9658M9.38269 35.4419H25.9658" stroke="black"/>
</svg>
