<svg width="82" height="81" viewBox="0 0 82 81" fill="none" xmlns="http://www.w3.org/2000/svg">
<path d="M7.16633 30.0467H1V23.3935L41.0811 1L81 23.3935V30.0467H75.9696M7.16633 30.0467V33.9412H10.2495V68.0183H7.16633V71.9128M7.16633 30.0467H20.1481M7.16633 71.9128H1V80.1886H81V71.9128H75.9696M7.16633 71.9128H20.1481M20.1481 71.9128V68.0183H16.5781V33.9412H20.1481V30.0467M20.1481 71.9128H25.1785M20.1481 30.0467H25.1785M25.1785 30.0467V33.9412H29.073V68.0183H25.1785V71.9128M25.1785 30.0467H38.9716M25.1785 71.9128H38.9716M38.9716 71.9128V68.0183H34.9148V33.9412H38.9716V30.0467M38.9716 71.9128H43.5152M38.9716 30.0467H43.5152M43.5152 30.0467V33.9412H47.572V68.0183H43.5152V71.9128M43.5152 30.0467H57.4706M43.5152 71.9128H57.4706M57.4706 71.9128V68.0183H54.5V33.9412H57.4706V30.0467M57.4706 71.9128H61.8519M57.4706 30.0467H61.8519M61.8519 30.0467V33.9412H65.5V68L61.8519 68.0183V71.9128M61.8519 30.0467H75.9696M61.8519 71.9128H75.9696M75.9696 71.9128V68.0183H71.9128V33.9412H75.9696V30.0467M10.2495 23.3935L41.0811 6.1927L71.9128 23.3935V27.4503H10.2495V23.3935Z" stroke="black"/>
</svg>
