<svg width="80" height="80" viewBox="0 0 80 80" fill="none" xmlns="http://www.w3.org/2000/svg">
<path d="M78.3999 27.6062V37.9025M78.3999 27.6062H68.6659M78.3999 27.6062L68.6659 37.9025M3.19995 27.6062V37.9025M3.19995 27.6062H18.0873M3.19995 27.6062V14.6404L7.5898 13.9569M3.19995 27.6062L18.0873 25.3036M78.3999 37.9025V76.8H3.19995V37.9025M78.3999 37.9025H68.6659M3.19995 37.9025H7.5898M7.5898 37.9025L18.0873 27.6062M7.5898 37.9025H18.0873M18.0873 27.6062H28.5847M18.0873 37.9025L28.5847 27.6062M18.0873 37.9025H28.5847M28.5847 27.6062H38.7005M28.5847 37.9025L38.7005 27.6062M28.5847 37.9025H38.7005M38.7005 27.6062H48.8162M38.7005 37.9025L48.8162 27.6062M38.7005 37.9025H48.8162M48.8162 27.6062H58.9319M48.8162 37.9025L58.9319 27.6062M48.8162 37.9025H58.9319M58.9319 27.6062H68.6659M58.9319 37.9025L68.6659 27.6062M58.9319 37.9025H68.6659M78.3999 15.9751L76.6822 3.19995L68.6659 4.448M78.3999 15.9751L68.6659 17.4806M78.3999 15.9751L68.6659 4.448M18.0873 25.3036L7.5898 13.9569M18.0873 25.3036L28.5847 23.6799M7.5898 13.9569L18.0873 12.3226M18.0873 12.3226L28.5847 23.6799M18.0873 12.3226L28.5847 10.6882M28.5847 23.6799L38.7005 22.1154M28.5847 10.6882L38.7005 22.1154M28.5847 10.6882L38.7005 9.11331M38.7005 22.1154L48.8162 20.5508M38.7005 9.11331L48.8162 20.5508M38.7005 9.11331L48.8162 7.53839M48.8162 20.5508L58.9319 18.9862M48.8162 7.53839L58.9319 18.9862M48.8162 7.53839L58.9319 5.96348M58.9319 18.9862L68.6659 17.4806M58.9319 5.96348L68.6659 17.4806M58.9319 5.96348L68.6659 4.448" stroke="black"/>
</svg>
